<?xml version="1.0" encoding="UTF-8" standalone="no"?>
<svg
   xmlns:osb="http://www.openswatchbook.org/uri/2009/osb"
   xmlns:dc="http://purl.org/dc/elements/1.1/"
   xmlns:cc="http://creativecommons.org/ns#"
   xmlns:rdf="http://www.w3.org/1999/02/22-rdf-syntax-ns#"
   xmlns:svg="http://www.w3.org/2000/svg"
   xmlns="http://www.w3.org/2000/svg"
   xmlns:xlink="http://www.w3.org/1999/xlink"
   id="svg8"
   version="1.1"
   viewBox="0 0 113.79057 105.9428"
   height="105.9428mm"
   width="113.79057mm">
  <defs
     id="defs2">
    <linearGradient
       osb:paint="solid"
       id="linearGradient4534">
      <stop
         id="stop4532"
         offset="0"
         style="stop-color:#000000;stop-opacity:1;" />
    </linearGradient>
    <linearGradient
       id="linearGradient4524">
      <stop
         id="stop4522"
         offset="0"
         style="stop-color:#2a7fff;stop-opacity:1;" />
    </linearGradient>
    <linearGradient
       gradientUnits="userSpaceOnUse"
       y2="100.11848"
       x2="112.5262"
       y1="100.11848"
       x1="7.3674645"
       id="linearGradient4536"
       xlink:href="#linearGradient4534" />
  </defs>
  <metadata
     id="metadata5">
    <rdf:RDF>
      <cc:Work
         rdf:about="">
        <dc:format>image/svg+xml</dc:format>
        <dc:type
           rdf:resource="http://purl.org/dc/dcmitype/StillImage" />
        <dc:title></dc:title>
      </cc:Work>
    </rdf:RDF>
  </metadata>
  <g
     transform="translate(-17.67663,-164.96257)"
     id="layer1">
    <g
       transform="translate(-77.790667,20.387069)"
       id="g6440">
      <path
         id="path4627"
         d="m 175.90529,250.5183 h -47.08564 c 0,-4.33381 3.51372,-7.84753 7.84753,-7.84753 h 31.39035 c 4.33404,-2.2e-4 7.84776,3.51372 7.84776,7.84753"
         style="fill:#e8edee;stroke-width:0.22224677" />
      <polygon
         id="polygon4629"
         points="317.793,459.034 194.207,459.034 211.862,388.414 300.138,388.414 "
         style="fill:#b0b6bb"
         transform="matrix(0.22224676,0,0,0.22224676,95.467297,140.65173)" />
      <path
         id="path4631"
         d="M 209.25764,211.28019 H 95.467297 v -59.83794 c 0,-3.79241 3.074339,-6.86675 6.866763,-6.86675 H 202.3911 c 3.79242,0 6.86676,3.07434 6.86676,6.86675 v 59.83794 z"
         style="fill:#b7c8be;stroke-width:0.22224677" />
      <path
         id="path4633"
         d="M 202.39088,226.97548 H 102.33406 c -3.792424,0 -6.866763,-3.07434 -6.866763,-6.86676 v -8.82853 H 209.25764 v 8.82853 c 0,3.79242 -3.07434,6.86676 -6.86676,6.86676"
         style="fill:#e8edee;stroke-width:0.22224677" />
      <text
         transform="scale(0.92951566,1.0758291)"
         xml:space="preserve"
         style="font-style:normal;font-weight:normal;font-size:15.86699772px;line-height:1.25;font-family:sans-serif;letter-spacing:0px;word-spacing:0px;fill:#003380;fill-opacity:1;stroke:none;stroke-width:0.99652642"
         x="110.66322"
         y="152.36656"
         id="text3715"><tspan
           id="tspan3713"
           x="110.66322"
           y="152.36656"
           style="font-style:normal;font-variant:normal;font-weight:900;font-stretch:normal;font-family:'Segoe UI';-inkscape-font-specification:'Segoe UI Heavy';fill:#003380;fill-opacity:1;stroke:none;stroke-width:0.99652642">CODEDEPLOY</tspan></text>
      <text
         id="text5281"
         y="187.42381"
         x="102.91809"
         style="font-style:normal;font-weight:normal;font-size:25.74317551px;line-height:0.25;font-family:sans-serif;letter-spacing:0px;word-spacing:0px;fill:#374548;fill-opacity:1;stroke:none;stroke-width:1.61679971"
         xml:space="preserve"><tspan
           style="font-style:normal;font-variant:normal;font-weight:300;font-stretch:normal;font-size:9.12593651px;line-height:0.25;font-family:'Segoe UI';-inkscape-font-specification:'Segoe UI Light';fill:#374548;fill-opacity:1;stroke:none;stroke-width:1.61679971"
           y="187.42381"
           x="102.91809"
           id="tspan6372">APLIKACJE</tspan><tspan
           style="font-style:normal;font-variant:normal;font-weight:300;font-stretch:normal;font-size:9.12593651px;line-height:0.25;font-family:'Segoe UI';-inkscape-font-specification:'Segoe UI Light';fill:#374548;fill-opacity:1;stroke:none;stroke-width:1.61679971"
           y="196.66273"
           x="102.91809"
           id="tspan6376">NOWEJ</tspan><tspan
           style="font-style:normal;font-variant:normal;font-weight:300;font-stretch:normal;font-size:9.12593651px;line-height:0.25;font-family:'Segoe UI';-inkscape-font-specification:'Segoe UI Light';fill:#374548;fill-opacity:1;stroke:none;stroke-width:1.61679971"
           y="205.90164"
           x="102.91809"
           id="tspan6378">GENERACJI</tspan></text>
    </g>
    <g
       transform="matrix(0.18732482,0,0,0.18732482,186.13122,95.07039)"
       id="g4669" />
    <g
       transform="matrix(0.18732482,0,0,0.18732482,186.13122,95.07039)"
       id="g4671" />
    <g
       transform="matrix(0.18732482,0,0,0.18732482,186.13122,95.07039)"
       id="g4673" />
    <g
       transform="matrix(0.18732482,0,0,0.18732482,186.13122,95.07039)"
       id="g4675" />
    <g
       transform="matrix(0.18732482,0,0,0.18732482,186.13122,95.07039)"
       id="g4677" />
    <g
       transform="matrix(0.18732482,0,0,0.18732482,186.13122,95.07039)"
       id="g4679" />
    <g
       transform="matrix(0.18732482,0,0,0.18732482,186.13122,95.07039)"
       id="g4681" />
    <g
       transform="matrix(0.18732482,0,0,0.18732482,186.13122,95.07039)"
       id="g4683" />
    <g
       transform="matrix(0.18732482,0,0,0.18732482,186.13122,95.07039)"
       id="g4685" />
    <g
       transform="matrix(0.18732482,0,0,0.18732482,186.13122,95.07039)"
       id="g4687" />
    <g
       transform="matrix(0.18732482,0,0,0.18732482,186.13122,95.07039)"
       id="g4689" />
    <g
       transform="matrix(0.18732482,0,0,0.18732482,186.13122,95.07039)"
       id="g4691" />
    <g
       transform="matrix(0.18732482,0,0,0.18732482,186.13122,95.07039)"
       id="g4693" />
    <g
       transform="matrix(0.18732482,0,0,0.18732482,186.13122,95.07039)"
       id="g4695" />
    <g
       transform="matrix(0.18732482,0,0,0.18732482,186.13122,95.07039)"
       id="g4697" />
    <g
       transform="matrix(0.14444428,0,0,0.14444428,63.516668,158.35249)"
       id="g4904" />
    <g
       transform="matrix(0.14444428,0,0,0.14444428,63.516668,158.35249)"
       id="g4906" />
    <g
       transform="matrix(0.14444428,0,0,0.14444428,63.516668,158.35249)"
       id="g4908" />
    <g
       transform="matrix(0.14444428,0,0,0.14444428,63.516668,158.35249)"
       id="g4910" />
    <g
       transform="matrix(0.14444428,0,0,0.14444428,63.516668,158.35249)"
       id="g4912" />
    <g
       transform="matrix(0.14444428,0,0,0.14444428,63.516668,158.35249)"
       id="g4914" />
    <g
       transform="matrix(0.14444428,0,0,0.14444428,63.516668,158.35249)"
       id="g4916" />
    <g
       transform="matrix(0.14444428,0,0,0.14444428,63.516668,158.35249)"
       id="g4918" />
    <g
       transform="matrix(0.14444428,0,0,0.14444428,63.516668,158.35249)"
       id="g4920" />
    <g
       transform="matrix(0.14444428,0,0,0.14444428,63.516668,158.35249)"
       id="g4922" />
    <g
       transform="matrix(0.14444428,0,0,0.14444428,63.516668,158.35249)"
       id="g4924" />
    <g
       transform="matrix(0.14444428,0,0,0.14444428,63.516668,158.35249)"
       id="g4926" />
    <g
       transform="matrix(0.14444428,0,0,0.14444428,63.516668,158.35249)"
       id="g4928" />
    <g
       transform="matrix(0.14444428,0,0,0.14444428,63.516668,158.35249)"
       id="g4930" />
    <g
       transform="matrix(0.14444428,0,0,0.14444428,63.516668,158.35249)"
       id="g4932" />
  </g>
</svg>
