<?xml version="1.0" encoding="UTF-8" standalone="no"?>
<svg
   xmlns:osb="http://www.openswatchbook.org/uri/2009/osb"
   xmlns:dc="http://purl.org/dc/elements/1.1/"
   xmlns:cc="http://creativecommons.org/ns#"
   xmlns:rdf="http://www.w3.org/1999/02/22-rdf-syntax-ns#"
   xmlns:svg="http://www.w3.org/2000/svg"
   xmlns="http://www.w3.org/2000/svg"
   xmlns:xlink="http://www.w3.org/1999/xlink"
   id="svg8"
   version="1.1"
   viewBox="0 0 51.231493 72.187704"
   height="72.187706mm"
   width="51.231495mm">
  <defs
     id="defs2">
    <linearGradient
       osb:paint="solid"
       id="linearGradient4534">
      <stop
         id="stop4532"
         offset="0"
         style="stop-color:#000000;stop-opacity:1;" />
    </linearGradient>
    <linearGradient
       id="linearGradient4524">
      <stop
         id="stop4522"
         offset="0"
         style="stop-color:#2a7fff;stop-opacity:1;" />
    </linearGradient>
    <linearGradient
       gradientUnits="userSpaceOnUse"
       y2="100.11848"
       x2="112.5262"
       y1="100.11848"
       x1="7.3674645"
       id="linearGradient4536"
       xlink:href="#linearGradient4534" />
  </defs>
  <metadata
     id="metadata5">
    <rdf:RDF>
      <cc:Work
         rdf:about="">
        <dc:format>image/svg+xml</dc:format>
        <dc:type
           rdf:resource="http://purl.org/dc/dcmitype/StillImage" />
        <dc:title></dc:title>
      </cc:Work>
    </rdf:RDF>
  </metadata>
  <g
     transform="translate(-211.57749,-200.42875)"
     id="layer1">
    <g
       transform="matrix(0.18732482,0,0,0.18732482,186.13122,95.07039)"
       id="g4669" />
    <g
       transform="matrix(0.18732482,0,0,0.18732482,186.13122,95.07039)"
       id="g4671" />
    <g
       transform="matrix(0.18732482,0,0,0.18732482,186.13122,95.07039)"
       id="g4673" />
    <g
       transform="matrix(0.18732482,0,0,0.18732482,186.13122,95.07039)"
       id="g4675" />
    <g
       transform="matrix(0.18732482,0,0,0.18732482,186.13122,95.07039)"
       id="g4677" />
    <g
       transform="matrix(0.18732482,0,0,0.18732482,186.13122,95.07039)"
       id="g4679" />
    <g
       transform="matrix(0.18732482,0,0,0.18732482,186.13122,95.07039)"
       id="g4681" />
    <g
       transform="matrix(0.18732482,0,0,0.18732482,186.13122,95.07039)"
       id="g4683" />
    <g
       transform="matrix(0.18732482,0,0,0.18732482,186.13122,95.07039)"
       id="g4685" />
    <g
       transform="matrix(0.18732482,0,0,0.18732482,186.13122,95.07039)"
       id="g4687" />
    <g
       transform="matrix(0.18732482,0,0,0.18732482,186.13122,95.07039)"
       id="g4689" />
    <g
       transform="matrix(0.18732482,0,0,0.18732482,186.13122,95.07039)"
       id="g4691" />
    <g
       transform="matrix(0.18732482,0,0,0.18732482,186.13122,95.07039)"
       id="g4693" />
    <g
       transform="matrix(0.18732482,0,0,0.18732482,186.13122,95.07039)"
       id="g4695" />
    <g
       transform="matrix(0.18732482,0,0,0.18732482,186.13122,95.07039)"
       id="g4697" />
    <g
       transform="translate(44.664179,20.373134)"
       id="g6477">
      <path
         style="fill:#ffdc8d;stroke-width:0.12892857"
         d="m 209.41974,249.94997 c -3.95045,1.55062 -8.18262,2.33655 -12.45311,2.29152 -2.77104,-0.0288 -5.55608,-0.40778 -8.28944,-1.15369 l -1.19472,-0.68976 c -2.38238,-1.37548 -4.39596,-3.30339 -5.87253,-5.62273 l -8.71943,-13.70816 -1.87524,-3.09708 -2.04382,-3.37649 15.51267,8.02296 c 1.70688,0.98546 3.70019,-3.44513 4.68494,-5.15077 l 16.34664,-9.45019 4.28897,16.00664 c 0.58579,2.18617 0.72606,4.44652 0.4356,6.64964 -0.29039,2.20301 -1.01014,4.34957 -2.1424,6.3107 z"
         id="path4852" />
      <g
         id="g4858"
         transform="matrix(0.11165543,0.06446429,-0.06446429,0.11165543,185.26391,174.14589)">
        <path
           style="fill:#f2ce86"
           d="m 381.471,479.19 c -18.725,10.553 -38.902,18.808 -60.155,24.398 h -10.7 c -21.337,0 -42.339,-5.141 -61.252,-14.994 L 137.633,430.33 113.026,416.799 269.708,428.617 c 0,0 30.313,50.573 111.741,50.573 0.012,0 0.012,0 0.022,0 z"
           id="path4854" />
        <path
           style="fill:#f2ce86"
           d="M 86.727,165.064 H 71.428 c -0.757,-0.047 -1.513,-0.084 -2.258,-0.084 -8.023,0 -16.033,3.063 -22.158,9.188 -12.238,12.237 -12.238,32.077 0,44.315 l 17.246,17.258 c -6.749,0.793 -13.283,3.771 -18.459,8.947 -12.238,12.238 -12.238,32.09 0,44.328 l 9.055,9.055 c 2.619,2.619 5.585,4.684 8.768,6.173 0.208,-0.147 0.425,-0.274 0.636,-0.414 v 0.689 c -0.211,-0.094 -0.427,-0.176 -0.636,-0.275 -1.526,1.032 -2.979,2.234 -4.335,3.591 -12.238,12.249 -12.238,32.09 0,44.328 l 9.055,9.056 c 0.985,0.973 2.018,1.872 3.087,2.69 v -24.035 h 15.298 z"
           id="path4856" />
      </g>
      <path
         style="fill:#5c5e70;stroke-width:0.12892857"
         d="m 216.36033,192.09956 -20.03087,-11.56483 c -1.70687,-0.98547 -3.88874,-0.40225 -4.87427,1.30473 l -24.06406,41.6802 c -0.98458,1.70531 -0.39867,3.88663 1.3081,4.87204 l 19.04886,10.99787 c -0.47184,-3.00857 0.63458,-5.96955 2.77395,-7.9456 l 11.03508,-9.42769 0.52293,1.95159 15.58592,-26.9956 c 0.98541,-1.70706 0.40124,-3.88724 -1.30564,-4.87271"
         id="path4860" />
      <path
         style="fill:#b7c8be;fill-opacity:1;stroke-width:0.12892857"
         d="m 194.57083,213.21938 c -1.19362,0.31889 -2.1429,1.08999 -2.71541,2.0816 -0.57258,0.99173 -0.76649,2.20043 -0.44637,3.39476 l 1.88463,7.03352 c 0.49508,1.84767 -0.19315,3.83186 -1.76828,4.91364 -0.35499,0.24302 -0.69105,0.51259 -1.00343,0.80044 l -19.54071,-11.28183 19.84856,-34.37871 23.73616,13.70408 -13.00832,22.53105 -1.51035,-5.6367 c -0.63835,-2.38624 -3.09075,-3.80214 -5.47648,-3.16185 z"
         id="path4862" />
      <path
         style="fill:#494b5b;stroke-width:0.12892857"
         d="m 183.1723,232.1002 c -0.52402,0.90764 -1.47492,1.41491 -2.45245,1.41058 0.41324,-0.239 0.77025,-0.58505 1.02624,-1.02844 0.78002,-1.35103 0.31814,-3.07829 -1.03289,-3.85831 -0.44338,-0.25599 -0.92664,-0.37793 -1.40474,-0.37705 0.84442,-0.49252 1.92331,-0.52914 2.83096,-0.005 1.35109,0.77991 1.8129,2.50728 1.03288,3.85832 z"
         id="path4864" />
      <path
         style="fill:#f2ce86;stroke-width:0.12892857"
         d="m 205.10214,229.39791 -1.29492,-4.83273 2.36564,-4.09742 -0.65678,-2.45153 -3.43589,5.95112 1.56004,5.82218 c 0.17459,0.65117 1.04923,0.7664 1.38632,0.18255 0.1003,-0.17373 0.12741,-0.38036 0.0756,-0.57417 z"
         id="path4866" />
      <path
         style="fill:#ffffff;stroke-width:0.12892857"
         d="m 196.75559,221.48467 0.87272,-1.51158 1.51147,0.87265 -0.87271,1.51158 -1.51148,-0.87265 m -4.15326,-5.96401 0.87265,-1.51148 1.51148,0.87266 -0.87265,1.51148 -0.87272,1.51158 -1.51148,-0.87265 0.87272,-1.51159 m 4.18596,2.41677 0.87265,-1.51149 1.51159,0.87272 -0.87266,1.51148 -1.51158,-0.87271 m 1.53601,-4.04077 -0.19398,0.33599 -1.51147,-0.87266 0.10526,-0.18234 c -0.68823,-0.15783 -1.42397,-0.15444 -2.15358,0.041 -0.30785,0.0825 -0.59973,0.19504 -0.87284,0.33391 l -0.23588,0.40854 -0.23179,-0.13382 c -0.57051,0.38373 -1.0377,0.89098 -1.37472,1.47471 -0.57212,0.99094 -0.76613,2.20033 -0.44657,3.39331 l 1.88507,7.03481 c 0.49487,1.84651 -0.1932,3.83094 -1.76904,4.9129 -0.35537,0.24369 -0.69117,0.51281 -1.00262,0.80135 l -3.42213,-1.97576 -7e-5,1.1e-4 3.4218,1.97557 c -2.13914,1.97617 -3.24551,4.93703 -2.77395,7.94558 l 0.65631,0.37893 c 1.87715,1.08377 4.27509,0.4486 5.37099,-1.41708 l 8.30468,-14.38411 -0.52306,-1.95108 -0.98037,-3.65946 -0.76551,1.32591 -1.51148,-0.87265 0.87265,-1.51148 1.32592,0.76551 -0.4512,-1.68388 c -0.27878,-1.04392 -0.90567,-1.90235 -1.72242,-2.48377 m 16.24081,-14.4109 -12.86538,-7.42782 -2e-4,3.5e-4 12.86538,7.42782 2e-4,-3.5e-4"
         id="path4868" />
      <g
         id="g5989"
         transform="matrix(0.03258676,0.01881397,-0.01881397,0.03258676,188.4323,197.86969)">
        <g
           id="g5920">
          <polygon
             id="polygon5916"
             points="452.288,451.017 59.712,451.017 33.379,129.16 256,253.802 484.973,122.808 "
             style="fill:#f2f2f2" />
          <polygon
             id="polygon5918"
             points="256,60.983 473.886,60.983 256,265.659 38.114,60.983 "
             style="fill:#f2f2f2" />
        </g>
        <path
           id="path5922"
           d="M 59.712,155.493 V 451.017 H 24.139 C 10.812,451.017 0,440.206 0,426.878 V 111.967 l 39,1.063 z"
           style="fill:#f14336" />
        <path
           id="path5924"
           d="m 512,111.967 v 314.912 c 0,13.327 -10.812,24.139 -24.152,24.139 h -35.56 V 155.493 l 19.692,-46.525 z"
           style="fill:#f14336;fill-opacity:1" />
        <path
           id="path5926"
           d="m 512,85.122 v 26.845 L 452.288,155.493 256,298.561 59.712,155.493 0,111.967 V 85.122 C 0,71.795 10.812,60.983 24.139,60.983 H 38.114 L 256,219.792 473.886,60.983 h 13.962 c 13.34,0 24.152,10.811 24.152,24.139 z"
           style="fill:#f14336" />
        <polygon
           id="polygon5928"
           points="0,146.235 0,111.967 59.712,155.493 "
           style="fill:#f14336;fill-opacity:1" />
        <g
           id="g5930" />
        <g
           id="g5932" />
        <g
           id="g5934" />
        <g
           id="g5936" />
        <g
           id="g5938" />
        <g
           id="g5940" />
        <g
           id="g5942" />
        <g
           id="g5944" />
        <g
           id="g5946" />
        <g
           id="g5948" />
        <g
           id="g5950" />
        <g
           id="g5952" />
        <g
           id="g5954" />
        <g
           id="g5956" />
        <g
           id="g5958" />
      </g>
      <path
         style="fill:#ffdc8d;stroke-width:0.12892857"
         d="m 201.55758,222.0173 -1.51029,-5.63682 c -0.63802,-2.38502 -3.09052,-3.80098 -5.47648,-3.16184 -1.19291,0.31972 -2.14255,1.09092 -2.71545,2.08321 -0.57212,0.99094 -0.76606,2.20022 -0.44638,3.39325 l 1.88499,7.03493 c 0.49486,1.84651 -0.19313,3.83082 -1.76897,4.91279 -0.35526,0.24375 -0.69118,0.5128 -1.00262,0.80135 -2.14005,1.97566 -3.24525,4.93659 -2.77449,7.94572 l 0.55473,2.50918 c 1.70699,0.98553 5.78811,0.48264 6.77293,-1.22313 l 7.00464,-16.70859 z"
         id="path4898" />
      <path
         style="fill:#f9eed7;stroke-width:0.12892857"
         d="m 198.50074,217.04583 c -0.38555,-1.4389 -1.86453,-2.29279 -3.30344,-1.90724 -1.43889,0.38555 -2.29278,1.86453 -1.90724,3.30344 0.38555,1.4389 1.57245,1.20232 3.01134,0.81677 1.43873,-0.3855 2.5849,-0.77407 2.19934,-2.21297 z"
         id="path4900" />
      <circle
         style="fill:#fcf8f2;stroke-width:0.12892857"
         cx="279.39972"
         cy="89.65274"
         r="0.6287846"
         id="circle4902"
         transform="rotate(29.999999)" />
    </g>
    <g
       transform="matrix(0.14444428,0,0,0.14444428,63.516668,158.35249)"
       id="g4904" />
    <g
       transform="matrix(0.14444428,0,0,0.14444428,63.516668,158.35249)"
       id="g4906" />
    <g
       transform="matrix(0.14444428,0,0,0.14444428,63.516668,158.35249)"
       id="g4908" />
    <g
       transform="matrix(0.14444428,0,0,0.14444428,63.516668,158.35249)"
       id="g4910" />
    <g
       transform="matrix(0.14444428,0,0,0.14444428,63.516668,158.35249)"
       id="g4912" />
    <g
       transform="matrix(0.14444428,0,0,0.14444428,63.516668,158.35249)"
       id="g4914" />
    <g
       transform="matrix(0.14444428,0,0,0.14444428,63.516668,158.35249)"
       id="g4916" />
    <g
       transform="matrix(0.14444428,0,0,0.14444428,63.516668,158.35249)"
       id="g4918" />
    <g
       transform="matrix(0.14444428,0,0,0.14444428,63.516668,158.35249)"
       id="g4920" />
    <g
       transform="matrix(0.14444428,0,0,0.14444428,63.516668,158.35249)"
       id="g4922" />
    <g
       transform="matrix(0.14444428,0,0,0.14444428,63.516668,158.35249)"
       id="g4924" />
    <g
       transform="matrix(0.14444428,0,0,0.14444428,63.516668,158.35249)"
       id="g4926" />
    <g
       transform="matrix(0.14444428,0,0,0.14444428,63.516668,158.35249)"
       id="g4928" />
    <g
       transform="matrix(0.14444428,0,0,0.14444428,63.516668,158.35249)"
       id="g4930" />
    <g
       transform="matrix(0.14444428,0,0,0.14444428,63.516668,158.35249)"
       id="g4932" />
  </g>
</svg>
